<svg width="46" height="26" viewBox="0 0 46 26" fill="none" xmlns="http://www.w3.org/2000/svg">
<path d="M45.3051 0.70488C44.3808 -0.232812 42.8822 -0.239257 41.9578 0.711324L21.3251 21.8754C20.4007 22.8228 20.4039 24.3534 21.3314 25.2943C21.792 25.7615 22.3977 26 23.0003 26C23.6092 26 24.2149 25.7615 24.6755 25.2879L45.3083 4.12375C46.2327 3.17639 46.2295 1.64579 45.3051 0.70488ZM4.04532 0.711643C3.12094 -0.238938 1.62239 -0.232493 0.698017 0.705198C-0.229508 1.64611 -0.232666 3.17671 0.688552 4.12407L14.3901 18.1798C14.8507 18.6535 15.4596 18.8919 16.0653 18.8919C16.6679 18.8919 17.2736 18.6535 17.7342 18.1862C18.6618 17.2453 18.6649 15.7147 17.7437 14.7674L4.04532 0.711643Z" fill="white"/>
</svg>
