<svg width="46" height="26" viewBox="0 0 46 26" fill="none" xmlns="http://www.w3.org/2000/svg">
<path d="M0.694859 25.2951C1.61923 26.2328 3.11779 26.2393 4.04216 25.2887L24.6749 4.12455C25.5993 3.17719 25.5961 1.6466 24.6686 0.705684C24.208 0.238451 23.6023 -2.2194e-06 22.9997 -2.11404e-06C22.3908 -2.00758e-06 21.7851 0.238447 21.3245 0.712126L0.691703 21.8763C-0.23267 22.8236 -0.229513 24.3542 0.694859 25.2951ZM41.9547 25.2883C42.8791 26.2389 44.3776 26.2325 45.302 25.2948C46.2295 24.3539 46.2327 22.8233 45.3114 21.8759L31.6099 7.82022C31.1493 7.34654 30.5404 7.10808 29.9347 7.10808C29.3321 7.10808 28.7264 7.34654 28.2658 7.81377C27.3382 8.75469 27.3351 10.2853 28.2563 11.2326L41.9547 25.2883Z" fill="white"/>
</svg>
