<svg width="28" height="34" viewBox="0 0 28 34" fill="none" xmlns="http://www.w3.org/2000/svg">
<path d="M24 15.666H4V7.33268H24M14 27.3327C12.15 27.3327 10.6667 25.8327 10.6667 23.9994C10.6667 22.1494 12.15 20.666 14 20.666C14.884 20.666 15.7319 21.0172 16.357 21.6423C16.9821 22.2675 17.3333 23.1153 17.3333 23.9994C17.3333 24.8834 16.9821 25.7313 16.357 26.3564C15.7319 26.9815 14.884 27.3327 14 27.3327ZM0.666664 24.8327C0.666664 26.3798 1.28125 27.8635 2.37521 28.9575C3.46917 30.0514 4.9529 30.666 6.5 30.666L4 33.166V33.9994H24V33.166L21.5 30.666C23.0471 30.666 24.5308 30.0514 25.6248 28.9575C26.7187 27.8635 27.3333 26.3798 27.3333 24.8327V7.33268C27.3333 1.49935 21.3667 0.666016 14 0.666016C6.63333 0.666016 0.666664 1.49935 0.666664 7.33268V24.8327Z" fill="#F2568E"/>
</svg>
