<svg width="34" height="42" viewBox="0 0 34 42" fill="none" xmlns="http://www.w3.org/2000/svg">
<path d="M29.5 18.834H4.50004V8.41732H29.5M17 33.4173C14.6875 33.4173 12.8334 31.5423 12.8334 29.2507C12.8334 26.9382 14.6875 25.084 17 25.084C18.1051 25.084 19.1649 25.523 19.9463 26.3044C20.7277 27.0858 21.1667 28.1456 21.1667 29.2507C21.1667 30.3557 20.7277 31.4155 19.9463 32.1969C19.1649 32.9783 18.1051 33.4173 17 33.4173ZM0.333374 30.2923C0.333374 32.2262 1.1016 34.0809 2.46905 35.4483C3.83651 36.8158 5.69117 37.584 7.62504 37.584L4.50004 40.709V41.7507H29.5V40.709L26.375 37.584C28.3089 37.584 30.1636 36.8158 31.531 35.4483C32.8985 34.0809 33.6667 32.2262 33.6667 30.2923V8.41732C33.6667 1.12565 26.2084 0.0839844 17 0.0839844C7.79171 0.0839844 0.333374 1.12565 0.333374 8.41732V30.2923Z" fill="#FBE04B"/>
</svg>
