<svg width="90" height="90" viewBox="0 0 90 90" fill="none" xmlns="http://www.w3.org/2000/svg">
<g filter="url(#filter0_b_0_1)">
<rect width="90" height="90" rx="13" fill="black" fill-opacity="0.15"/>
</g>
<path d="M67.2951 22.6949C68.2328 23.6192 68.2393 25.1178 67.2887 26.0422L25.2108 67.3114C24.2634 68.2358 22.6676 68.239 21.7267 67.3114C21.2594 66.8508 21 66.1026 21 65.5C21 64.8911 21.253 64.4606 21.7267 64L63.8763 22.6917C64.8236 21.7673 66.3542 21.7705 67.2951 22.6949ZM67.2884 63.9547C68.2389 64.8791 68.2325 66.3776 67.2948 67.302C66.3539 68.2295 64.8233 68.2327 63.8759 67.3114L49.8202 53.6099C49.3465 53.1493 49.1081 52.5404 49.1081 51.9347C49.1081 51.3321 49.3465 50.7264 49.8138 50.2658C50.7547 49.3382 52.2853 49.3351 53.2326 50.2563L67.2884 63.9547Z" fill="white"/>
<path d="M21.7049 22.6949C20.7672 23.6192 20.7607 25.1178 21.7113 26.0422L42.8754 46.6749C43.8228 47.5993 45.3534 47.5961 46.2943 46.6686C46.7615 46.208 47 45.6023 47 44.9997C47 44.3908 46.7615 43.7851 46.2879 43.3245L25.1237 22.6917C24.1764 21.7673 22.6458 21.7705 21.7049 22.6949ZM21.7116 63.9547C20.7611 64.8791 20.7675 66.3776 21.7052 67.302C22.6461 68.2295 24.1767 68.2327 25.1241 67.3114L39.1798 53.6099C39.6535 53.1493 39.8919 52.5404 39.8919 51.9347C39.8919 51.3321 39.6535 50.7264 39.1862 50.2658C38.2453 49.3382 36.7147 49.3351 35.7674 50.2563L21.7116 63.9547Z" fill="white"/>
<defs>
<filter id="filter0_b_0_1" x="-4" y="-4" width="98" height="98" filterUnits="userSpaceOnUse" color-interpolation-filters="sRGB">
<feFlood flood-opacity="0" result="BackgroundImageFix"/>
<feGaussianBlur in="BackgroundImageFix" stdDeviation="2"/>
<feComposite in2="SourceAlpha" operator="in" result="effect1_backgroundBlur_0_1"/>
<feBlend mode="normal" in="SourceGraphic" in2="effect1_backgroundBlur_0_1" result="shape"/>
</filter>
</defs>
</svg>
