<svg width="71" height="60" viewBox="0 0 71 60" fill="none" xmlns="http://www.w3.org/2000/svg">
<path d="M42 16.6667H37V33.3333L51.2667 41.8L53.6667 37.7667L42 30.8333V16.6667ZM40.3334 0C32.3769 0 24.7463 3.1607 19.1202 8.7868C13.4941 14.4129 10.3334 22.0435 10.3334 30H0.333374L13.5334 43.4333L27 30H17C17 23.8116 19.4584 17.8767 23.8342 13.5008C28.2101 9.12499 34.145 6.66667 40.3334 6.66667C46.5218 6.66667 52.4567 9.12499 56.8325 13.5008C61.2084 17.8767 63.6667 23.8116 63.6667 30C63.6667 36.1884 61.2084 42.1233 56.8325 46.4992C52.4567 50.875 46.5218 53.3333 40.3334 53.3333C33.9 53.3333 28.0667 50.7 23.8667 46.4667L19.1334 51.2C24.5667 56.6667 32 60 40.3334 60C48.2899 60 55.9205 56.8393 61.5466 51.2132C67.1727 45.5871 70.3334 37.9565 70.3334 30C70.3334 22.0435 67.1727 14.4129 61.5466 8.7868C55.9205 3.1607 48.2899 0 40.3334 0Z" fill="#D9D9D9"/>
</svg>
