<svg width="80" height="80" viewBox="0 0 80 80" fill="none" xmlns="http://www.w3.org/2000/svg">
<path d="M45 26.6667H40V43.3333L54.2667 51.8L56.6667 47.7667L45 40.8333V26.6667ZM43.3333 10C35.3768 10 27.7462 13.1607 22.1201 18.7868C16.494 24.4129 13.3333 32.0435 13.3333 40H3.33334L16.5333 53.4333L30 40H20C20 33.8116 22.4583 27.8767 26.8342 23.5008C31.21 19.125 37.145 16.6667 43.3333 16.6667C49.5217 16.6667 55.4566 19.125 59.8325 23.5008C64.2083 27.8767 66.6667 33.8116 66.6667 40C66.6667 46.1884 64.2083 52.1233 59.8325 56.4992C55.4566 60.875 49.5217 63.3333 43.3333 63.3333C36.9 63.3333 31.0667 60.7 26.8667 56.4667L22.1333 61.2C27.5667 66.6667 35 70 43.3333 70C51.2898 70 58.9204 66.8393 64.5465 61.2132C70.1726 55.5871 73.3333 47.9565 73.3333 40C73.3333 32.0435 70.1726 24.4129 64.5465 18.7868C58.9204 13.1607 51.2898 10 43.3333 10Z" fill="#F78F20"/>
</svg>
