<svg width="60" height="57" viewBox="0 0 60 57" fill="none" xmlns="http://www.w3.org/2000/svg">
<path d="M50.3333 6.50033H3.66667V0.666992H50.3333V6.50033ZM37.7625 29.8337H32.8333V34.7628C30.9958 37.5337 29.9167 40.8295 29.9167 44.417C29.9167 45.4087 30.0333 46.3712 30.1792 47.3337H3.66667V29.8337H0.75V24.0003L3.66667 9.41699H50.3333L53.25 24.0003V27.9378C51.4125 27.2962 49.4583 26.917 47.4167 26.917C43.8292 26.917 40.5333 27.9962 37.7625 29.8337ZM27 29.8337H9.5V41.5003H27V29.8337ZM47.3 24.0003L45.55 15.2503H8.45L6.7 24.0003H47.3ZM50.3333 41.5003V32.7503H44.5V41.5003H35.75V47.3337H44.5V56.0837H50.3333V47.3337H59.0833V41.5003H50.3333Z" fill="white"/>
</svg>
