<svg width="80" height="80" viewBox="0 0 80 80" fill="none" xmlns="http://www.w3.org/2000/svg">
<rect x="8" y="17" width="64" height="47" rx="7" stroke="#F78F20" stroke-width="6"/>
<path d="M29.4133 34.572C29.4133 35.556 29.2333 36.396 28.8733 37.092C28.5373 37.788 28.0693 38.364 27.4693 38.82C26.8693 39.276 26.1733 39.612 25.3813 39.828C24.5893 40.02 23.7613 40.116 22.8973 40.116H22.2133V48H18.6493V28.992H22.8973C23.7853 28.992 24.6253 29.1 25.4173 29.316C26.2093 29.532 26.9053 29.868 27.5053 30.324C28.1053 30.756 28.5733 31.332 28.9093 32.052C29.2453 32.748 29.4133 33.588 29.4133 34.572ZM25.8493 34.536C25.8493 33.696 25.5733 33.12 25.0213 32.808C24.4693 32.496 23.7373 32.34 22.8253 32.34H22.2133V36.732H22.9333C23.8213 36.732 24.5293 36.564 25.0573 36.228C25.5853 35.868 25.8493 35.304 25.8493 34.536ZM40.9954 48V46.92C40.5634 47.256 40.0234 47.556 39.3754 47.82C38.7514 48.084 38.1154 48.216 37.4674 48.216C36.3634 48.216 35.3674 48.036 34.4794 47.676C33.6154 47.292 32.8714 46.788 32.2474 46.164C31.6474 45.54 31.1794 44.82 30.8434 44.004C30.5314 43.164 30.3754 42.276 30.3754 41.34C30.3754 40.404 30.5314 39.528 30.8434 38.712C31.1794 37.896 31.6474 37.188 32.2474 36.588C32.8714 35.988 33.6154 35.52 34.4794 35.184C35.3434 34.824 36.3154 34.644 37.3954 34.644C38.0194 34.644 38.6434 34.752 39.2674 34.968C39.8914 35.16 40.4674 35.448 40.9954 35.832V34.788H44.3794V48H40.9954ZM41.0674 41.196C41.0674 40.188 40.7314 39.348 40.0594 38.676C39.4114 38.004 38.5114 37.668 37.3594 37.668C36.8554 37.668 36.3754 37.776 35.9194 37.992C35.4874 38.184 35.1034 38.448 34.7674 38.784C34.4554 39.12 34.2034 39.516 34.0114 39.972C33.8434 40.404 33.7594 40.86 33.7594 41.34C33.7594 42.42 34.0954 43.32 34.7674 44.04C35.4394 44.76 36.3274 45.12 37.4314 45.12C38.5834 45.12 39.4714 44.76 40.0954 44.04C40.7434 43.296 41.0674 42.348 41.0674 41.196ZM52.3818 55.704H48.7098L52.2378 47.784L45.8298 34.824H49.5378L54.0378 43.824L58.0338 34.824H61.6698L52.3818 55.704Z" fill="#F78F20"/>
</svg>
