<svg width="66" height="68" viewBox="0 0 66 68" fill="none" xmlns="http://www.w3.org/2000/svg">
<path d="M33 20.667C36.5362 20.667 39.9276 22.0717 42.428 24.5722C44.9285 27.0727 46.3333 30.4641 46.3333 34.0003C46.3333 37.5365 44.9285 40.9279 42.428 43.4284C39.9276 45.9289 36.5362 47.3337 33 47.3337C29.4637 47.3337 26.0723 45.9289 23.5719 43.4284C21.0714 40.9279 19.6666 37.5365 19.6666 34.0003C19.6666 30.4641 21.0714 27.0727 23.5719 24.5722C26.0723 22.0717 29.4637 20.667 33 20.667ZM33 27.3337C31.2318 27.3337 29.5362 28.036 28.2859 29.2863C27.0357 30.5365 26.3333 32.2322 26.3333 34.0003C26.3333 35.7684 27.0357 37.4641 28.2859 38.7144C29.5362 39.9646 31.2318 40.667 33 40.667C34.7681 40.667 36.4638 39.9646 37.714 38.7144C38.9642 37.4641 39.6666 35.7684 39.6666 34.0003C39.6666 32.2322 38.9642 30.5365 37.714 29.2863C36.4638 28.036 34.7681 27.3337 33 27.3337ZM26.3333 67.3337C25.5 67.3337 24.8 66.7337 24.6666 65.9337L23.4333 57.1003C21.3333 56.267 19.5333 55.1337 17.8 53.8003L9.49995 57.167C8.76662 57.4337 7.86662 57.167 7.46662 56.4337L0.799953 44.9003C0.36662 44.167 0.56662 43.267 1.19995 42.767L8.23329 37.2337L7.99995 34.0003L8.23329 30.667L1.19995 25.2337C0.56662 24.7337 0.36662 23.8337 0.799953 23.1003L7.46662 11.567C7.86662 10.8337 8.76662 10.5337 9.49995 10.8337L17.8 14.167C19.5333 12.867 21.3333 11.7337 23.4333 10.9003L24.6666 2.06699C24.8 1.26699 25.5 0.666992 26.3333 0.666992H39.6666C40.5 0.666992 41.2 1.26699 41.3333 2.06699L42.5666 10.9003C44.6666 11.7337 46.4666 12.867 48.2 14.167L56.5 10.8337C57.2333 10.5337 58.1333 10.8337 58.5333 11.567L65.2 23.1003C65.6333 23.8337 65.4333 24.7337 64.8 25.2337L57.7666 30.667L58 34.0003L57.7666 37.3337L64.8 42.767C65.4333 43.267 65.6333 44.167 65.2 44.9003L58.5333 56.4337C58.1333 57.167 57.2333 57.467 56.5 57.167L48.2 53.8337C46.4666 55.1337 44.6666 56.267 42.5666 57.1003L41.3333 65.9337C41.2 66.7337 40.5 67.3337 39.6666 67.3337H26.3333ZM30.5 7.33366L29.2666 16.0337C25.2666 16.867 21.7333 19.0003 19.1666 21.967L11.1333 18.5003L8.63329 22.8337L15.6666 28.0003C14.3333 31.9003 14.3333 36.1337 15.6666 40.0003L8.59995 45.2003L11.1 49.5337L19.2 46.067C21.7666 49.0003 25.2666 51.1337 29.2333 51.9337L30.4666 60.667H35.5333L36.7666 51.967C40.7333 51.1337 44.2333 49.0003 46.7999 46.067L54.9 49.5337L57.4 45.2003L50.3333 40.0337C51.6666 36.1337 51.6666 31.9003 50.3333 28.0003L57.3666 22.8337L54.8666 18.5003L46.8333 21.967C44.2666 19.0003 40.7333 16.867 36.7333 16.067L35.5 7.33366H30.5Z" fill="#D9D9D9"/>
</svg>
